<svg id="Layer_1" enable-background="new 0 0 512 512" height="512" viewBox="0 0 512 512" width="512" xmlns="http://www.w3.org/2000/svg"><path d="m481 120v272h-450v-272l30-30h390z" fill="#f0f9fb"/><path d="m481 120v272h-225v-302h195z" fill="#d7f0f5"/><path d="m31 0h450v120h-450z" fill="#596c76"/><path d="m256 0h225v120h-225z" fill="#465a61"/><path d="m91 45h180v30h-180z" fill="#465a61"/><path d="m331 45h30v30h-30z" fill="#26bfbf"/><path d="m391 45h30v30h-30z" fill="#26bfbf"/><path d="m256 45h15v30h-15z" fill="#3b4a51"/><path d="m256 242c-74.399 0-135 60.599-135 135 0 74.399 60.601 135 135 135s135-60.601 135-135c0-74.401-60.601-135-135-135z" fill="#57d9d4"/><path d="m391 377c0 74.399-60.601 135-135 135v-270c74.399 0 135 60.599 135 135z" fill="#26bfbf"/><path d="m241 362h30v90h-30z" fill="#465a61"/><path d="m241 302h30v30h-30z" fill="#465a61"/><g fill="#3b4a51"><path d="m256 302h15v30h-15z"/><path d="m256 362h15v90h-15z"/></g></svg>